<?xml version="1.0" standalone="no"?>
<!DOCTYPE svg PUBLIC "-//W3C//DTD SVG 20010904//EN"
 "http://www.w3.org/TR/2001/REC-SVG-20010904/DTD/svg10.dtd">
<svg version="1.0" xmlns="http://www.w3.org/2000/svg"
 width="296.000000pt" height="93.000000pt" viewBox="0 0 296.000000 93.000000"
 preserveAspectRatio="xMidYMid meet">
<metadata>
Created by potrace 1.15, written by Peter Selinger 2001-2017
</metadata>
<g transform="translate(0.000000,93.000000) scale(0.100000,-0.100000)"
fill="#ffffff" stroke="none">
<path d="M959 811 c-71 -22 -95 -55 -105 -146 -6 -52 -10 -58 -40 -73 -29 -13
-34 -21 -34 -49 0 -31 2 -33 35 -33 l35 0 0 -210 0 -210 70 0 70 0 2 208 3
207 58 3 57 3 0 49 0 50 -60 0 -60 0 0 33 c0 52 28 71 89 63 l49 -6 16 46 c9
26 14 49 12 52 -19 18 -149 27 -197 13z"/>
<path d="M1200 450 l0 -360 65 0 65 0 0 360 0 360 -65 0 -65 0 0 -360z"/>
<path d="M2132 794 c-16 -11 -22 -25 -22 -53 0 -47 20 -66 70 -66 50 0 70 19
70 66 0 43 -26 69 -70 69 -14 0 -36 -7 -48 -16z"/>
<path d="M2712 677 l5 -132 -29 27 c-29 27 -83 48 -124 48 -69 0 -143 -56
-171 -129 -22 -57 -25 -217 -4 -275 46 -130 195 -176 291 -90 l38 35 13 -36
c13 -34 14 -35 66 -35 l53 0 0 360 0 360 -71 0 -72 0 5 -133z m-58 -177 c44
-16 66 -65 66 -146 0 -89 -14 -130 -51 -149 -88 -46 -159 16 -159 137 0 81 16
126 53 148 36 22 54 24 91 10z"/>
<path d="M265 705 c-33 -32 -31 -61 5 -147 17 -38 30 -74 30 -78 0 -4 -41 -12
-92 -18 -76 -8 -95 -14 -110 -32 -26 -32 -23 -76 8 -107 25 -25 27 -25 120
-18 l95 7 -7 -29 c-3 -15 -10 -44 -15 -63 -29 -113 22 -186 101 -145 29 15 45
53 65 155 4 19 9 38 12 42 2 4 37 -13 77 -37 40 -25 85 -45 98 -45 39 0 78 36
78 71 0 47 -14 64 -95 111 l-74 43 69 65 c62 58 70 70 70 102 0 28 -6 42 -26
57 -47 37 -77 27 -163 -51 -30 -27 -57 -46 -61 -41 -4 4 -20 39 -35 76 -43
104 -99 134 -150 82z"/>
<path d="M1482 408 c3 -191 4 -205 26 -244 29 -50 66 -73 129 -81 63 -7 124
10 163 47 l31 29 9 -25 c6 -14 10 -30 10 -35 0 -5 25 -9 55 -9 l55 0 0 260 0
260 -70 0 -70 0 0 -152 c0 -214 -15 -254 -97 -265 -32 -4 -45 0 -69 20 l-29
25 -3 186 -3 186 -71 0 -70 0 4 -202z"/>
<path d="M2110 350 l0 -260 70 0 70 0 0 260 0 260 -70 0 -70 0 0 -260z"/>
</g>
</svg>
